<svg xmlns="http://www.w3.org/2000/svg" width="20" height="14" viewBox="0 0 20 14">
  <path id="icon_youtube" d="M22.254,6.977a2.5,2.5,0,0,0-1.768-1.768c-1.56-.418-7.814-.418-7.814-.418s-6.254,0-7.814.418A2.5,2.5,0,0,0,3.09,6.977a26.034,26.034,0,0,0-.418,4.814A26.031,26.031,0,0,0,3.09,16.6a2.5,2.5,0,0,0,1.768,1.768c1.56.418,7.814.418,7.814.418s6.254,0,7.814-.418A2.5,2.5,0,0,0,22.254,16.6a26.031,26.031,0,0,0,.418-4.814A26.034,26.034,0,0,0,22.254,6.977ZM10.672,14.791v-6l5.2,3-5.2,3Z" transform="translate(-2.672 -4.791)" fill="#fff" fill-rule="evenodd"/>
</svg>
